<svg width="25" height="24" viewBox="0 0 25 24" fill="none" xmlns="http://www.w3.org/2000/svg">
<path d="M6.8335 22V4C6.8335 3.73 6.8335 3.45 6.9035 3.18C6.9647 2.91063 7.10023 2.66382 7.29467 2.46761C7.48912 2.27139 7.73469 2.13364 8.0035 2.07C8.2935 2 9.5635 2 9.8335 2H16.8335C17.1035 2 17.3835 2 17.6535 2.07C17.9229 2.13121 18.1697 2.26673 18.3659 2.46117C18.5621 2.65562 18.6999 2.90119 18.7635 3.17C18.8335 3.45 18.8335 3.73 18.8335 4V22H6.8335Z" stroke="black" stroke-width="2" stroke-linecap="round" stroke-linejoin="round"/>
<path d="M2.83352 14V20C2.83352 21.1 3.73352 22 4.83352 22H6.83352V12H4.83352C4.56352 12 4.28352 12 4.01352 12.07C3.74352 12.14 3.49352 12.27 3.29352 12.47C3.10352 12.66 2.97352 12.91 2.90352 13.18C2.84707 13.4495 2.82357 13.7248 2.83352 14Z" stroke="black" stroke-width="2" stroke-linecap="round" stroke-linejoin="round"/>
<path d="M21.6535 9.06978C21.384 9.01333 21.1087 8.98983 20.8335 8.99978H18.8335V21.9998H20.8335C21.3639 21.9998 21.8726 21.7891 22.2477 21.414C22.6228 21.0389 22.8335 20.5302 22.8335 19.9998V10.9998C22.8335 10.7198 22.8335 10.4498 22.7635 10.1798C22.6935 9.90978 22.5635 9.65978 22.3635 9.45978C22.1735 9.26978 21.9235 9.13978 21.6535 9.06978Z" stroke="black" stroke-width="2" stroke-linecap="round" stroke-linejoin="round"/>
<path d="M10.8335 6H14.8335" stroke="black" stroke-width="2" stroke-linecap="round" stroke-linejoin="round"/>
<path d="M10.8335 10H14.8335" stroke="black" stroke-width="2" stroke-linecap="round" stroke-linejoin="round"/>
<path d="M10.8335 14H14.8335" stroke="black" stroke-width="2" stroke-linecap="round" stroke-linejoin="round"/>
<path d="M10.8335 18H14.8335" stroke="black" stroke-width="2" stroke-linecap="round" stroke-linejoin="round"/>
</svg>
