<svg width="15" height="14" viewBox="0 0 15 14" fill="none" xmlns="http://www.w3.org/2000/svg">
<g clip-path="url(#clip0_474_576)">
<path d="M9.25004 7L4.29171 11.9583C3.80754 12.4425 3.02588 12.4425 2.54171 11.9583C2.42671 11.8435 2.33548 11.7071 2.27324 11.5569C2.21099 11.4068 2.17896 11.2459 2.17896 11.0833C2.17896 10.9208 2.21099 10.7599 2.27324 10.6097C2.33548 10.4596 2.42671 10.3232 2.54171 10.2083L7.50004 5.25" stroke="#71717A" stroke-width="2" stroke-linecap="round" stroke-linejoin="round"/>
<path d="M10.79 8.75012L13.3334 6.20679" stroke="#71717A" stroke-width="2" stroke-linecap="round" stroke-linejoin="round"/>
<path d="M12.6975 6.8249L11.9683 6.09573C11.6183 5.74573 11.4258 5.27906 11.4258 4.78323V4.28156L9.83917 2.68323C9.53796 2.38025 9.17986 2.13977 8.78544 1.9756C8.39102 1.81143 7.96806 1.72679 7.54083 1.72656H5.75L6.28667 2.2049C6.66785 2.54287 6.97307 2.95781 7.18221 3.42234C7.39135 3.88687 7.49966 4.39045 7.5 4.8999V5.8099L8.66667 6.97656H10.1075L11.4258 8.09073" stroke="#71717A" stroke-width="2" stroke-linecap="round" stroke-linejoin="round"/>
</g>
<defs>
<clipPath id="clip0_474_576">
<rect width="14" height="14" fill="white" transform="translate(0.5)"/>
</clipPath>
</defs>
</svg>
