<svg width="25" height="24" viewBox="0 0 25 24" fill="none" xmlns="http://www.w3.org/2000/svg">
<path d="M21.7099 15.8901C21.0737 17.3946 20.0787 18.7203 18.8118 19.7514C17.5449 20.7825 16.0447 21.4875 14.4424 21.8049C12.84 22.1222 11.1843 22.0422 9.62006 21.5719C8.05578 21.1015 6.63054 20.2551 5.46893 19.1067C4.30733 17.9583 3.44473 16.5428 2.95655 14.984C2.46837 13.4252 2.36948 11.7706 2.66851 10.1647C2.96755 8.55886 3.65541 7.05071 4.67196 5.77211C5.68851 4.49351 7.0028 3.4834 8.49992 2.83008" stroke="black" stroke-width="2" stroke-linecap="round" stroke-linejoin="round"/>
<path d="M22.5 12C22.5 10.6868 22.2413 9.38642 21.7388 8.17317C21.2362 6.95991 20.4997 5.85752 19.5711 4.92893C18.6425 4.00035 17.5401 3.26375 16.3268 2.7612C15.1136 2.25866 13.8132 2 12.5 2V12H22.5Z" stroke="black" stroke-width="2" stroke-linecap="round" stroke-linejoin="round"/>
</svg>
