<svg width="15" height="14" viewBox="0 0 15 14" fill="none" xmlns="http://www.w3.org/2000/svg">
<g clip-path="url(#clip0_454_1343)">
<path d="M2.58337 4.08333V2.91667C2.58337 2.60725 2.70629 2.3105 2.92508 2.09171C3.14388 1.87292 3.44062 1.75 3.75004 1.75H4.91671" stroke="#71717A" stroke-width="2" stroke-linecap="round" stroke-linejoin="round"/>
<path d="M10.75 1.75H11.9167C12.2261 1.75 12.5228 1.87292 12.7416 2.09171C12.9604 2.3105 13.0833 2.60725 13.0833 2.91667V4.08333" stroke="#71717A" stroke-width="2" stroke-linecap="round" stroke-linejoin="round"/>
<path d="M13.0833 9.91675V11.0834C13.0833 11.3928 12.9604 11.6896 12.7416 11.9084C12.5228 12.1272 12.2261 12.2501 11.9167 12.2501H10.75" stroke="#71717A" stroke-width="2" stroke-linecap="round" stroke-linejoin="round"/>
<path d="M4.91671 12.2501H3.75004C3.44062 12.2501 3.14388 12.1272 2.92508 11.9084C2.70629 11.6896 2.58337 11.3928 2.58337 11.0834V9.91675" stroke="#71717A" stroke-width="2" stroke-linecap="round" stroke-linejoin="round"/>
</g>
<defs>
<clipPath id="clip0_454_1343">
<rect width="14" height="14" fill="white" transform="translate(0.833374)"/>
</clipPath>
</defs>
</svg>
